<svg width="57" height="56" viewBox="0 0 57 56" fill="none" xmlns="http://www.w3.org/2000/svg">
<path fill-rule="evenodd" clip-rule="evenodd" d="M27.6359 0.129427C27.5912 0.36899 27.507 1.51703 27.4488 2.68062C27.3906 3.84421 27.3156 4.90824 27.2822 5.04514C27.2081 5.34891 27.5183 7.59732 27.6558 7.75313C27.7141 7.81921 27.8271 7.62296 27.9323 7.27288C28.1697 6.48276 28.1591 4.02814 27.9076 1.56058C27.757 0.0842523 27.7002 -0.215046 27.6359 0.129427ZM7.36369 5.16958C7.36369 5.27225 7.40069 5.35651 7.44602 5.35676C7.49136 5.35701 7.77533 5.70657 8.0772 6.13356C8.37907 6.56054 8.78653 7.09418 8.9828 7.31943C9.17907 7.54481 9.33955 7.7489 9.33955 7.77304C9.33955 7.82419 10.1662 8.8876 10.5007 9.26679C10.898 9.71717 11.4442 10.2097 11.5463 10.2097C11.6004 10.2097 11.6447 10.2589 11.6447 10.3191C11.6447 10.4428 12.284 10.7709 12.3591 10.6858C12.4285 10.6072 11.9852 9.67698 11.7997 9.51159C11.7144 9.43555 11.6447 9.33512 11.6447 9.28833C11.6447 9.20283 11.1666 8.68948 9.93714 7.45495C9.5715 7.08783 9.03725 6.54934 8.74998 6.25851C8.46282 5.96767 8.20793 5.7296 8.18367 5.7296C8.15952 5.7296 7.98807 5.5616 7.80277 5.35626C7.41979 4.93176 7.36369 4.90799 7.36369 5.16958ZM47.8688 5.08184C47.8688 5.1361 47.6341 5.38575 47.3474 5.63639C47.0607 5.88715 46.6455 6.27667 46.4248 6.50205C46.2042 6.72742 45.7349 7.19013 45.382 7.53012C45.0291 7.87011 44.5181 8.40238 44.2464 8.71287C43.672 9.36934 42.9048 10.6271 43.0436 10.6849C43.187 10.7446 43.8194 10.3759 44.1915 10.0159C45.0267 9.20756 45.2344 8.97783 45.2344 8.86184C45.2344 8.79327 45.278 8.71848 45.3314 8.69558C45.3847 8.6728 45.7892 8.17812 46.2302 7.59633C46.6711 7.01453 47.0844 6.47841 47.1485 6.40498C47.2126 6.33156 47.4133 6.05777 47.5944 5.79656C47.7755 5.53534 47.989 5.2455 48.0687 5.15229C48.1894 5.01154 48.1848 4.98291 48.0413 4.98291C47.9464 4.98291 47.8688 5.02746 47.8688 5.08184ZM3.02778 21.603C2.3033 21.6885 1.31536 21.7658 0.832377 21.7748C0.0828668 21.7889 -0.018013 21.8153 0.143788 21.9545C0.353888 22.1355 2.87553 22.3329 4.89387 22.3264C7.1582 22.3191 7.81836 21.9898 6.3178 21.6159C5.38509 21.3836 4.9032 21.3817 3.02778 21.603ZM50.5857 21.6263C50.1782 21.7318 49.8447 21.8831 49.8447 21.9626C49.8447 22.2425 51.4184 22.4492 52.7903 22.3497C53.4946 22.2985 54.6736 22.2202 55.4104 22.1757C56.247 22.125 56.8013 22.0362 56.8868 21.939C56.9962 21.8145 56.8709 21.7829 56.2608 21.7808C55.8411 21.7795 54.7569 21.6962 53.8513 21.5958C51.868 21.3757 51.5412 21.3789 50.5857 21.6263Z" fill="url(#paint0_linear_173_8314)"/>
<path fill-rule="evenodd" clip-rule="evenodd" d="M13.2502 17.1921C13.2502 17.3826 17.2632 28.4712 17.3712 28.5792C17.4492 28.657 19.9486 26.0944 23.3236 22.4759C24.2543 21.478 25.7824 19.8681 26.7194 18.8979L28.4229 17.1341H20.8365C16.6641 17.1341 13.2502 17.1603 13.2502 17.1921ZM28.9022 17.386C28.9873 17.5247 29.7864 18.4052 30.6779 19.3427C34.3091 23.1612 36.0292 24.9849 37.6501 26.7348C38.5874 27.7467 39.4248 28.5623 39.5108 28.5472C39.629 28.5264 43.4867 17.5138 43.4867 17.1974C43.4867 17.1625 40.1704 17.1341 36.1173 17.1341C30.2738 17.1341 28.7799 17.1863 28.9022 17.386ZM8.70443 24.2564L5.26733 29.9342L10.7 29.9878C13.6882 30.0175 16.1787 29.9957 16.2347 29.9396C16.3379 29.8364 12.4923 18.9606 12.2651 18.713C12.1972 18.639 10.5948 21.1336 8.70443 24.2564ZM23.58 23.6265C20.9192 26.4304 18.496 29.0194 18.1955 29.3799L17.649 30.035H28.5803H39.5114L37.9037 28.372C37.0195 27.4574 34.5809 24.8948 32.4847 22.6774C30.3887 20.4601 28.616 18.6193 28.5459 18.587C28.4757 18.5546 26.241 20.8223 23.58 23.6265ZM42.528 24.2419C41.5032 27.2643 40.6647 29.8042 40.6647 29.886C40.6647 29.9681 43.0685 30.035 46.0065 30.035C48.9444 30.035 51.3482 29.9806 51.3482 29.9142C51.3482 29.8479 50.0188 27.6028 48.3941 24.9252C46.7692 22.2477 45.2636 19.762 45.0482 19.4018C44.8327 19.0414 44.5968 18.7467 44.5239 18.7467C44.4511 18.7467 43.5529 21.2196 42.528 24.2419ZM5.42235 31.2239C5.45924 31.3237 8.39218 34.6078 11.9399 38.522C15.4877 42.4364 20.3826 47.8387 22.8174 50.5271C25.2523 53.2157 27.2743 55.3855 27.3108 55.349C27.3743 55.2855 26.5394 53.4006 21.3659 41.928C20.0909 39.1009 18.6607 35.9261 18.1876 34.8728C17.7145 33.8196 17.1316 32.5271 16.8921 32.0004L16.4565 31.0429H10.9058C7.70803 31.0429 5.38365 31.1197 5.42235 31.2239ZM17.4833 31.1152C17.4833 31.1552 17.7883 31.8581 18.1612 32.6775C19.0242 34.5735 20.0984 36.9576 21.9208 41.0209C22.7164 42.7948 24.3922 46.5139 25.6444 49.2856C26.8968 52.0573 28.0685 54.6792 28.2483 55.112C28.4281 55.5446 28.6122 55.8618 28.6573 55.8167C28.7025 55.7717 29.4346 54.1476 30.2843 52.2079C31.1339 50.2681 32.1301 48.0005 32.4982 47.169C34.8111 41.9436 39.4552 31.2561 39.4552 31.159C39.4552 31.0951 34.5115 31.0429 28.4693 31.0429C22.427 31.0429 17.4833 31.0755 17.4833 31.1152ZM39.6598 33.0083C39.1865 34.0893 38.3213 36.0621 37.7372 37.3926C37.1532 38.723 35.882 41.6257 34.9127 43.843C33.9433 46.0604 32.4371 49.5025 31.5657 51.4923C30.6941 53.4818 29.9841 55.2053 29.9877 55.3222C29.9916 55.4389 30.1821 55.3077 30.4112 55.0305C30.8614 54.4861 39.6763 44.4764 42.4789 41.3273C43.4212 40.2685 44.8292 38.6778 45.6079 37.7927C46.3864 36.9074 48.0496 35.0264 49.3041 33.613L51.5845 31.0429H46.0526H40.5207L39.6598 33.0083Z" fill="url(#paint1_linear_173_8314)"/>
<defs>
<linearGradient id="paint0_linear_173_8314" x1="-4.49024" y1="12.6134" x2="69.6109" y2="12.6134" gradientUnits="userSpaceOnUse">
<stop stop-color="#BE553A"/>
<stop offset="0.465753" stop-color="#FFBBA9"/>
<stop offset="1" stop-color="#EA5C37"/>
</linearGradient>
<linearGradient id="paint1_linear_173_8314" x1="1.54542" y1="38.9428" x2="61.9231" y2="38.9428" gradientUnits="userSpaceOnUse">
<stop stop-color="#BE553A"/>
<stop offset="0.465753" stop-color="#FFBBA9"/>
<stop offset="1" stop-color="#EA5C37"/>
</linearGradient>
</defs>
</svg>
