<svg width="8" height="8" viewBox="0 0 8 8" fill="none" xmlns="http://www.w3.org/2000/svg">
<path fill-rule="evenodd" clip-rule="evenodd" d="M7.13159 0.821937C7.43704 1.10171 7.45785 1.57613 7.17808 1.88158C6.31325 2.82578 5.89741 3.40144 5.27276 4.51914C5.03692 4.94113 4.77573 5.52637 4.56754 6.02424C4.465 6.26946 4.37808 6.48679 4.31687 6.64264C4.2863 6.72049 4.26222 6.78278 4.2459 6.82531L4.22742 6.87369L4.22285 6.88573L4.22179 6.88854C4.12871 7.13587 3.91208 7.31661 3.65195 7.36324C3.39181 7.40987 3.12633 7.31614 2.95313 7.11652L0.80852 4.64477C0.537063 4.3319 0.570632 3.85822 0.883497 3.58676C1.19636 3.3153 1.67005 3.34887 1.9415 3.66174L3.28385 5.20884C3.48197 4.74652 3.72576 4.21253 3.96337 3.78736C4.64465 2.56832 5.12871 1.89824 6.07194 0.868431C6.35172 0.56298 6.82613 0.542165 7.13159 0.821937Z" fill="white"/>
</svg>
