<svg width="20" height="20" viewBox="0 0 20 20" fill="none" xmlns="http://www.w3.org/2000/svg">
<path d="M19.1113 17.0833C19.1113 17.5254 18.924 17.9493 18.5906 18.2618C18.2572 18.5744 17.805 18.75 17.3335 18.75H3.11127C2.63978 18.75 2.18759 18.5744 1.8542 18.2618C1.5208 17.9493 1.3335 17.5254 1.3335 17.0833V5.41667C1.3335 4.97464 1.5208 4.55072 1.8542 4.23816C2.18759 3.92559 2.63978 3.75 3.11127 3.75H7.55572H18.1113C18.6636 3.75 19.1113 4.19984 19.1113 4.75212C19.1113 6.43552 19.1113 5.91878 19.1113 7.91667V17.0833Z" stroke="#6E7CA7" stroke-width="1.5" stroke-linecap="round" stroke-linejoin="round"/>
<path d="M2.6665 8.75L18.6665 8.75" stroke="#6E7CA7" stroke-width="1.5" stroke-linecap="round"/>
<path d="M5.3335 1.25L5.3335 5" stroke="#6E7CA7" stroke-width="1.5" stroke-linecap="round"/>
<path d="M14.6665 1.25L14.6665 5" stroke="#6E7CA7" stroke-width="1.5" stroke-linecap="round"/>
<path d="M5.3335 12.5H6.66683" stroke="#6E7CA7" stroke-width="1.5" stroke-linecap="round"/>
<path d="M5.3335 15H6.66683" stroke="#6E7CA7" stroke-width="1.5" stroke-linecap="round"/>
<path d="M9.3335 12.5H10.6668" stroke="#6E7CA7" stroke-width="1.5" stroke-linecap="round"/>
<path d="M9.3335 15H10.6668" stroke="#6E7CA7" stroke-width="1.5" stroke-linecap="round"/>
<path d="M13.3335 12.5H14.6668" stroke="#6E7CA7" stroke-width="1.5" stroke-linecap="round"/>
<path d="M13.3335 15H14.6668" stroke="#6E7CA7" stroke-width="1.5" stroke-linecap="round"/>
</svg>
