<svg width="16" height="17" viewBox="0 0 16 17" fill="none" xmlns="http://www.w3.org/2000/svg">
<path d="M3.20981 15.3816L0.866677 13.7929C0.392798 13.4716 0.267736 12.8277 0.586884 12.3524L7.3193 2.32528C7.49136 2.06903 7.76834 1.90244 8.07534 1.87057L12.9436 1.36514C13.443 1.31329 13.9081 1.62558 14.0491 2.1074L15.4115 6.76163C15.5054 7.08226 15.4395 7.42845 15.2344 7.69218L13.6098 9.78162" stroke="#42505C" stroke-width="0.8"/>
<path d="M9.29957 11.1832C9.03761 10.6093 8.56655 10.1887 7.98996 10.014C7.41338 9.83925 6.77847 9.92467 6.22483 10.2514L4.13694 11.4839C3.58323 11.8109 3.15625 12.3526 2.94991 12.9898C2.74358 13.6269 2.77479 14.3074 3.03669 14.8816C3.29859 15.4557 3.76972 15.8765 4.34644 16.0512C4.92316 16.226 5.55822 16.1405 6.11192 15.8135L7.15562 15.1972" stroke="#42505C" stroke-width="0.96" stroke-linecap="round" stroke-linejoin="round"/>
<path d="M7.20856 12.4267C7.47052 13.0006 7.94159 13.4212 8.51817 13.5959C9.09476 13.7707 9.72967 13.6852 10.2833 13.3585L12.3712 12.1259C12.9249 11.799 13.3519 11.2573 13.5582 10.6201C13.7645 9.98294 13.7333 9.30243 13.4714 8.7283C13.2095 8.15416 12.7384 7.73343 12.1617 7.55867C11.5849 7.3839 10.9499 7.46941 10.3962 7.79639L9.35248 8.41272" stroke="#42505C" stroke-width="0.96" stroke-linecap="round" stroke-linejoin="round"/>
<circle cx="11.4886" cy="4.15252" r="0.88" transform="rotate(33.8783 11.4886 4.15252)" stroke="#42505C" stroke-width="0.8"/>
</svg>
