<svg width="18" height="18" viewBox="0 0 18 18" fill="none" xmlns="http://www.w3.org/2000/svg">
<path d="M4.9468 10.232C4.58738 10.6513 4.63594 11.2826 5.05526 11.642C5.47459 12.0015 6.10589 11.9529 6.46531 11.5336L4.9468 10.232ZM8.52958 7.58867L9.18038 6.82941L8.42112 6.17862L7.77033 6.93787L8.52958 7.58867ZM11.8237 10.4122L11.1729 11.1715L11.9833 11.8661L12.6237 11.0122L11.8237 10.4122ZM16.859 5.36514C17.1904 4.92331 17.1008 4.29651 16.659 3.96514C16.2172 3.63377 15.5904 3.72331 15.259 4.16514L16.859 5.36514ZM6.46531 11.5336L9.28884 8.23946L7.77033 6.93787L4.9468 10.232L6.46531 11.5336ZM7.87879 8.34792L11.1729 11.1715L12.4745 9.65294L9.18038 6.82941L7.87879 8.34792ZM12.6237 11.0122L16.859 5.36514L15.259 4.16514L11.0237 9.8122L12.6237 11.0122Z" fill="#4A7EF6"/>
<path d="M2.94141 1.94141C2.94141 1.38912 2.49369 0.941406 1.94141 0.941406C1.38912 0.941406 0.941406 1.38912 0.941406 1.94141H2.94141ZM1.94141 16.0591H0.941406V17.0591H1.94141V16.0591ZM16.0591 17.0591C16.6113 17.0591 17.0591 16.6113 17.0591 16.0591C17.0591 15.5068 16.6113 15.0591 16.0591 15.0591V17.0591ZM0.941406 1.94141V16.0591H2.94141V1.94141H0.941406ZM1.94141 17.0591H16.0591V15.0591H1.94141V17.0591Z" fill="#4A7EF6"/>
</svg>
