<svg width="16" height="16" viewBox="0 0 16 16" fill="none" xmlns="http://www.w3.org/2000/svg">
<path d="M4.58199 11.4193C3.35199 10.5459 2.37865 9.40992 1.82865 8.69258C1.67486 8.49457 1.59137 8.25098 1.59137 8.00025C1.59137 7.74952 1.67486 7.50593 1.82865 7.30792C2.82399 6.00859 5.21199 3.33325 7.99999 3.33325C9.25065 3.33325 10.42 3.87125 11.42 4.58259" stroke="#1B2767" stroke-width="1.3" stroke-linecap="round" stroke-linejoin="round"/>
<path d="M6.66663 12.4693C7.09943 12.5981 7.54839 12.6646 7.99996 12.6666C10.788 12.6666 13.176 9.99129 14.1713 8.69196C14.325 8.49377 14.4084 8.25002 14.4083 7.99918C14.4082 7.74834 14.3246 7.50467 14.1706 7.30663C13.8208 6.85029 13.4456 6.41404 13.0466 5.99996M9.41996 6.59129C9.23482 6.40307 9.01425 6.25337 8.77097 6.15082C8.52768 6.04827 8.2665 5.9949 8.00249 5.99379C7.73848 5.99269 7.47686 6.04386 7.23273 6.14437C6.98859 6.24488 6.76677 6.39273 6.58006 6.5794C6.39336 6.76606 6.24545 6.98784 6.14489 7.23195C6.04432 7.47606 5.99308 7.73767 5.99413 8.00168C5.99517 8.2657 6.04848 8.52689 6.15097 8.7702C6.25346 9.0135 6.40311 9.23411 6.59129 9.41929L9.41996 6.59129ZM2.66663 13.3333L13.3333 2.66663L2.66663 13.3333Z" stroke="#1B2767" stroke-width="1.3" stroke-linecap="round" stroke-linejoin="round"/>
</svg>
