<svg width="16" height="16" viewBox="0 0 16 16" fill="none" xmlns="http://www.w3.org/2000/svg">
<path d="M14.1714 7.30804C14.4874 7.72137 14.4874 8.27937 14.1714 8.69204C13.176 9.99137 10.788 12.6667 8.00003 12.6667C5.21203 12.6667 2.82403 9.99137 1.82869 8.69204C1.67495 8.49413 1.59149 8.25065 1.59149 8.00004C1.59149 7.74943 1.67495 7.50595 1.82869 7.30804C2.82403 6.00871 5.21203 3.33337 8.00003 3.33337C10.788 3.33337 13.176 6.00871 14.1714 7.30804V7.30804Z" stroke="#1B2767" stroke-width="1.3" stroke-linecap="round" stroke-linejoin="round"/>
<path d="M8 10C9.10457 10 10 9.10457 10 8C10 6.89543 9.10457 6 8 6C6.89543 6 6 6.89543 6 8C6 9.10457 6.89543 10 8 10Z" stroke="#1B2767" stroke-width="1.3" stroke-linecap="round" stroke-linejoin="round"/>
</svg>
