<svg width="14" height="14" viewBox="0 0 14 14" fill="none" xmlns="http://www.w3.org/2000/svg">
<g opacity="0.3">
<path d="M1.48183 13.8545C1.10663 13.8545 0.788825 13.7243 0.529825 13.4653C0.270825 13.2063 0.140625 12.8899 0.140625 12.5189C0.140625 12.1311 0.280625 11.7993 0.559225 11.5193L0.762225 11.3163C0.770625 11.3051 0.780425 11.2855 0.794425 11.2589C0.808425 11.2323 0.818225 11.2057 0.826625 11.1805C0.835025 11.1553 0.837825 11.1371 0.837825 11.1259C0.814025 11.0251 0.802825 10.9173 0.802825 10.8011C0.802825 10.5575 0.851825 10.3125 0.951225 10.0661C1.05063 9.81969 1.18502 9.61249 1.35442 9.44169L6.57083 4.22529L5.91983 3.57989C5.82323 3.48329 5.77423 3.36849 5.77423 3.23689C5.77423 3.10949 5.81903 3.00029 5.90723 2.91209L6.73182 2.08749C6.82142 2.00209 6.92922 1.96009 7.05663 1.96009C7.18823 1.96009 7.30303 2.00629 7.39963 2.10009L8.29982 3.00029C8.34183 2.94569 8.36703 2.91769 8.37543 2.91349L10.222 1.05989C10.8296 0.452291 11.3798 0.148492 11.8712 0.148492C12.2464 0.148492 12.6006 0.315093 12.9338 0.648293L13.3468 1.06129C13.687 1.40149 13.8578 1.75849 13.8578 2.12949C13.8578 2.40809 13.7738 2.68249 13.6058 2.95129C13.4378 3.22009 13.2138 3.49449 12.9352 3.77309L11.0816 5.62669L10.9948 5.69669L11.895 6.60249C11.9916 6.69489 12.0406 6.80969 12.0406 6.94549C12.0406 7.07289 11.9958 7.17929 11.9076 7.26469L11.083 8.08929C10.9934 8.17889 10.887 8.22229 10.7638 8.22229C10.628 8.22229 10.5118 8.17329 10.4152 8.07669L9.76982 7.43129L4.55343 12.6477C4.38263 12.8143 4.17543 12.9473 3.92903 13.0453C3.68263 13.1447 3.44043 13.1937 3.19963 13.1937C3.09183 13.1937 2.98403 13.1839 2.88042 13.1643C2.86503 13.1643 2.84403 13.1685 2.81603 13.1755C2.78943 13.1839 2.76283 13.1923 2.73763 13.2049C2.71242 13.2175 2.69423 13.2259 2.68303 13.2343L2.47443 13.4429C2.20143 13.7173 1.86963 13.8545 1.48183 13.8545ZM2.00542 9.93869H6.11163L9.19583 6.85449L7.14482 4.79789L2.00542 9.93869Z" fill="white"/>
</g>
</svg>
