<svg width="29" height="29" viewBox="0 0 29 29" fill="none" xmlns="http://www.w3.org/2000/svg">
<g opacity="0.5">
<path d="M1.8125 25.375C1.8125 26.3775 2.62246 27.1875 3.625 27.1875H12.6875V18.125H1.8125V25.375ZM16.3125 27.1875H25.375C26.3775 27.1875 27.1875 26.3775 27.1875 25.375V18.125H16.3125V27.1875ZM27.1875 9.0625H24.8029C25.1541 8.37715 25.375 7.61816 25.375 6.79688C25.375 4.0498 23.1377 1.8125 20.3906 1.8125C18.0344 1.8125 16.5107 3.01895 14.5566 5.68105C12.6025 3.01895 11.0789 1.8125 8.72266 1.8125C5.97559 1.8125 3.73828 4.0498 3.73828 6.79688C3.73828 7.61816 3.95352 8.37715 4.31035 9.0625H1.8125C0.809961 9.0625 0 9.87246 0 10.875V15.4062C0 15.9047 0.407812 16.3125 0.90625 16.3125H28.0938C28.5922 16.3125 29 15.9047 29 15.4062V10.875C29 9.87246 28.19 9.0625 27.1875 9.0625ZM8.71699 9.0625C7.46523 9.0625 6.45137 8.04863 6.45137 6.79688C6.45137 5.54512 7.46523 4.53125 8.71699 4.53125C9.84414 4.53125 10.6768 4.71816 13.5938 9.0625H8.71699ZM20.3906 9.0625H15.5139C18.4252 4.72949 19.2352 4.53125 20.3906 4.53125C21.6424 4.53125 22.6562 5.54512 22.6562 6.79688C22.6562 8.04863 21.6424 9.0625 20.3906 9.0625Z" fill="url(#paint0_linear_2233_1447)"/>
</g>
<defs>
<linearGradient id="paint0_linear_2233_1447" x1="0.00221297" y1="14.4874" x2="29.0066" y2="14.4874" gradientUnits="userSpaceOnUse">
<stop stop-color="#3FDAFF"/>
<stop offset="0.2368" stop-color="#40D2FC"/>
<stop offset="0.4074" stop-color="#43B6FA"/>
<stop offset="0.7741" stop-color="#4C6DF5"/>
<stop offset="1" stop-color="#523EF1"/>
</linearGradient>
</defs>
</svg>
