<svg width="24" height="25" viewBox="0 0 24 25" fill="none" xmlns="http://www.w3.org/2000/svg">
<path d="M21.2659 21.4982H2.73288C2.55735 21.4982 2.38491 21.452 2.23289 21.3642C2.08088 21.2765 1.95464 21.1502 1.86688 20.9982C1.77911 20.8462 1.73291 20.6738 1.73291 20.4982C1.73291 20.3227 1.77912 20.1502 1.86688 19.9982L11.1329 3.99823C11.2208 3.84669 11.347 3.7209 11.4988 3.63346C11.6506 3.54602 11.8227 3.5 11.9979 3.5C12.1731 3.5 12.3452 3.54602 12.497 3.63346C12.6488 3.7209 12.775 3.84669 12.8629 3.99823L22.1299 19.9982C22.2176 20.1502 22.2638 20.3225 22.2639 20.498C22.2639 20.6734 22.2178 20.8458 22.1301 20.9978C22.0425 21.1498 21.9164 21.276 21.7645 21.3639C21.6126 21.4517 21.4403 21.498 21.2649 21.4982H21.2659ZM10.9999 16.4982V18.4982H12.9979V16.4982H10.9999ZM10.9999 9.49823V14.4982H12.9999V9.49823H10.9999Z" fill="#43B6FA"/>
</svg>
