<svg width="24" height="24" viewBox="0 0 24 24" fill="none" xmlns="http://www.w3.org/2000/svg">
<path d="M21.2659 20.9982H2.73288C2.55735 20.9982 2.38491 20.952 2.23289 20.8642C2.08088 20.7765 1.95464 20.6502 1.86688 20.4982C1.77911 20.3462 1.73291 20.1738 1.73291 19.9982C1.73291 19.8227 1.77912 19.6502 1.86688 19.4982L11.1329 3.49823C11.2208 3.34669 11.347 3.2209 11.4988 3.13346C11.6506 3.04602 11.8227 3 11.9979 3C12.1731 3 12.3452 3.04602 12.497 3.13346C12.6488 3.2209 12.775 3.34669 12.8629 3.49823L22.1299 19.4982C22.2176 19.6502 22.2638 19.8225 22.2639 19.998C22.2639 20.1734 22.2178 20.3458 22.1301 20.4978C22.0425 20.6498 21.9164 20.776 21.7645 20.8639C21.6126 20.9517 21.4403 20.998 21.2649 20.9982H21.2659ZM10.9999 15.9982V17.9982H12.9979V15.9982H10.9999ZM10.9999 8.99823V13.9982H12.9999V8.99823H10.9999Z" fill="#BE261D"/>
</svg>
