<svg width="32" height="32" viewBox="0 0 32 32" fill="none" xmlns="http://www.w3.org/2000/svg">
<rect opacity="0.3" width="32" height="32" rx="8" fill="#43B6FA"/>
<g clip-path="url(#clip0_1769_14282)">
<path d="M16 18.5C17.3807 18.5 18.5 17.3807 18.5 16C18.5 14.6193 17.3807 13.5 16 13.5C14.6193 13.5 13.5 14.6193 13.5 16C13.5 17.3807 14.6193 18.5 16 18.5Z" stroke="#1B2767" stroke-width="2" stroke-linecap="round" stroke-linejoin="round"/>
<path d="M22.1673 18.4999C22.0564 18.7513 22.0233 19.0301 22.0723 19.3004C22.1213 19.5707 22.2502 19.8202 22.4423 20.0166L22.4923 20.0666C22.6473 20.2214 22.7702 20.4052 22.8541 20.6075C22.938 20.8098 22.9811 21.0267 22.9811 21.2458C22.9811 21.4648 22.938 21.6817 22.8541 21.884C22.7702 22.0863 22.6473 22.2701 22.4923 22.4249C22.3375 22.5799 22.1537 22.7028 21.9514 22.7867C21.7491 22.8706 21.5322 22.9137 21.3132 22.9137C21.0941 22.9137 20.8772 22.8706 20.6749 22.7867C20.4726 22.7028 20.2888 22.5799 20.134 22.4249L20.084 22.3749C19.8876 22.1828 19.6381 22.0539 19.3678 22.0049C19.0975 21.9559 18.8187 21.989 18.5673 22.0999C18.3208 22.2056 18.1106 22.381 17.9626 22.6045C17.8145 22.8281 17.7351 23.0901 17.734 23.3583V23.4999C17.734 23.9419 17.5584 24.3659 17.2458 24.6784C16.9333 24.991 16.5093 25.1666 16.0673 25.1666C15.6253 25.1666 15.2014 24.991 14.8888 24.6784C14.5762 24.3659 14.4007 23.9419 14.4007 23.4999V23.4249C14.3942 23.1491 14.3049 22.8816 14.1444 22.6572C13.9839 22.4328 13.7596 22.2618 13.5007 22.1666C13.2493 22.0557 12.9705 22.0226 12.7002 22.0716C12.4298 22.1206 12.1804 22.2495 11.984 22.4416L11.934 22.4916C11.7792 22.6465 11.5954 22.7695 11.3931 22.8534C11.1907 22.9372 10.9738 22.9804 10.7548 22.9804C10.5358 22.9804 10.3189 22.9372 10.1166 22.8534C9.91425 22.7695 9.73044 22.6465 9.57565 22.4916C9.42069 22.3368 9.29776 22.153 9.21388 21.9507C9.13001 21.7483 9.08684 21.5314 9.08684 21.3124C9.08684 21.0934 9.13001 20.8765 9.21388 20.6742C9.29776 20.4719 9.42069 20.288 9.57565 20.1333L9.62565 20.0833C9.81777 19.8869 9.94664 19.6374 9.99565 19.3671C10.0447 19.0967 10.0116 18.8179 9.90065 18.5666C9.79502 18.3201 9.61961 18.1099 9.39604 17.9618C9.17246 17.8138 8.91047 17.7343 8.64232 17.7333H8.50065C8.05862 17.7333 7.6347 17.5577 7.32214 17.2451C7.00958 16.9325 6.83398 16.5086 6.83398 16.0666C6.83398 15.6246 7.00958 15.2006 7.32214 14.8881C7.6347 14.5755 8.05862 14.3999 8.50065 14.3999H8.57565C8.85148 14.3935 9.11899 14.3042 9.3434 14.1437C9.56781 13.9832 9.73875 13.7589 9.83398 13.4999C9.94491 13.2486 9.978 12.9698 9.92899 12.6994C9.87997 12.4291 9.7511 12.1797 9.55898 11.9833L9.50898 11.9333C9.35402 11.7785 9.23109 11.5946 9.14722 11.3923C9.06334 11.19 9.02017 10.9731 9.02017 10.7541C9.02017 10.5351 9.06334 10.3182 9.14722 10.1159C9.23109 9.91352 9.35402 9.72971 9.50898 9.57492C9.66377 9.41996 9.84759 9.29703 10.0499 9.21315C10.2522 9.12928 10.4691 9.08611 10.6882 9.08611C10.9072 9.08611 11.1241 9.12928 11.3264 9.21315C11.5287 9.29703 11.7125 9.41996 11.8673 9.57492L11.9173 9.62492C12.1137 9.81703 12.3632 9.94591 12.6335 9.99492C12.9038 10.0439 13.1826 10.0108 13.434 9.89992H13.5007C13.7471 9.79428 13.9573 9.61888 14.1054 9.39531C14.2535 9.17173 14.3329 8.90974 14.334 8.64159V8.49992C14.334 8.05789 14.5096 7.63397 14.8221 7.32141C15.1347 7.00885 15.5586 6.83325 16.0007 6.83325C16.4427 6.83325 16.8666 7.00885 17.1792 7.32141C17.4917 7.63397 17.6673 8.05789 17.6673 8.49992V8.57492C17.6684 8.84307 17.7478 9.10506 17.8959 9.32864C18.044 9.55222 18.2542 9.72762 18.5007 9.83325C18.752 9.94418 19.0308 9.97727 19.3011 9.92826C19.5715 9.87924 19.8209 9.75037 20.0173 9.55825L20.0673 9.50825C20.2221 9.35329 20.4059 9.23036 20.6083 9.14649C20.8106 9.06261 21.0275 9.01944 21.2465 9.01944C21.4655 9.01944 21.6824 9.06261 21.8847 9.14649C22.087 9.23036 22.2709 9.35329 22.4257 9.50825C22.5806 9.66304 22.7035 9.84685 22.7874 10.0492C22.8713 10.2515 22.9145 10.4684 22.9145 10.6874C22.9145 10.9064 22.8713 11.1233 22.7874 11.3257C22.7035 11.528 22.5806 11.7118 22.4257 11.8666L22.3757 11.9166C22.1835 12.113 22.0547 12.3624 22.0056 12.6328C21.9566 12.9031 21.9897 13.1819 22.1007 13.4333V13.4999C22.2063 13.7464 22.3817 13.9566 22.6053 14.1047C22.8288 14.2527 23.0908 14.3322 23.359 14.3333H23.5007C23.9427 14.3333 24.3666 14.5088 24.6792 14.8214C24.9917 15.134 25.1673 15.5579 25.1673 15.9999C25.1673 16.4419 24.9917 16.8659 24.6792 17.1784C24.3666 17.491 23.9427 17.6666 23.5007 17.6666H23.4257C23.1575 17.6677 22.8955 17.7471 22.6719 17.8952C22.4484 18.0432 22.273 18.2534 22.1673 18.4999V18.4999Z" stroke="#1B2767" stroke-width="2" stroke-linecap="round" stroke-linejoin="round"/>
</g>
<defs>
<clipPath id="clip0_1769_14282">
<rect width="20" height="20" fill="white" transform="translate(6 6)"/>
</clipPath>
</defs>
</svg>
