<svg width="32" height="32" viewBox="0 0 32 32" fill="none" xmlns="http://www.w3.org/2000/svg">
<rect opacity="0.3" width="32" height="32" rx="8" fill="#97E9BC"/>
<path d="M10.6795 7.75L10.5392 8.335L7.77175 21.085L7.5625 22H11.2188L10.7733 24.085L10.5625 25H15.79L15.9062 24.3903L16.6788 20.7812H18.6962C21.5177 20.7812 23.995 18.9482 24.625 16C24.955 14.4505 24.6055 13.138 23.875 12.25C23.2825 11.53 22.48 11.0965 21.6475 10.8903C21.4885 10.1508 21.1488 9.51775 20.6875 9.03925C19.8325 8.14975 18.6505 7.75 17.5465 7.75H10.681H10.6795ZM11.8983 9.25H17.5487C18.2838 9.25 19.0953 9.535 19.6112 10.0705C20.1265 10.6067 20.4288 11.371 20.1498 12.673C19.6548 14.9905 17.9035 16.2805 15.6978 16.2805H12.46L12.3438 16.867L11.5712 20.5H9.4375L11.8975 9.25H11.8983ZM13.7987 10.3525L13.6578 10.9375L12.8853 14.4062L12.673 15.3212H15.322C16.6547 15.3212 17.8068 14.3507 18.1345 13.0465H18.157C18.1622 13.0315 18.154 13.0165 18.157 13C18.322 12.343 18.217 11.6703 17.8533 11.1715C17.4798 10.6615 16.8535 10.3517 16.1882 10.3517H13.7987V10.3525ZM14.9935 11.8525H16.189C16.4245 11.8525 16.549 11.92 16.6353 12.04C16.7222 12.1585 16.7853 12.3535 16.705 12.6475V12.6722C16.564 13.2797 15.8485 13.8198 15.3228 13.8198H14.5503L14.9943 11.8517L14.9935 11.8525ZM21.697 12.508C22.0945 12.67 22.4635 12.8905 22.7283 13.2108C23.1633 13.7432 23.4055 14.4745 23.1483 15.6737C22.6532 17.9928 20.902 19.2828 18.6962 19.2828H15.46L15.3438 19.8678L14.5712 23.5H12.4375L12.766 22H12.7885L12.9062 21.3903L13.6788 17.7812H15.6962C18.5177 17.7812 20.995 15.9482 21.625 13C21.661 12.8305 21.6753 12.6715 21.6955 12.508H21.697Z" fill="#1B2767"/>
</svg>
