<svg width="32" height="32" viewBox="0 0 32 32" fill="none" xmlns="http://www.w3.org/2000/svg">
<rect opacity="0.3" width="32" height="32" rx="8" fill="#43B6FA"/>
<path d="M23 23C23 23.5304 22.8525 24.0391 22.5899 24.4142C22.3274 24.7893 21.9713 25 21.6 25H10.4C10.0287 25 9.6726 24.7893 9.41005 24.4142C9.1475 24.0391 9 23.5304 9 23V9C9 8.46957 9.1475 7.96086 9.41005 7.58579C9.6726 7.21071 10.0287 7 10.4 7H13.9H21C22.1046 7 23 7.89607 23 9.00064C23 10.1009 23 9.99101 23 12V23Z" fill="#C7E9FE" stroke="#1B2767" stroke-width="2" stroke-linecap="round" stroke-linejoin="round"/>
<path d="M19 22H13C12.4477 22 12 21.5523 12 21V20C12 19.4477 12.4477 19 13 19H19C19.5523 19 20 19.4477 20 20V21C20 21.5523 19.5523 22 19 22Z" stroke="#1B2767" stroke-width="2" stroke-linecap="round"/>
<path d="M18.16 9.59985H16.2319V11.5999H18.16V9.59985ZM15.4681 14.3999H13.54V16.3999H15.4681V14.3999ZM15.5396 13.9505C15.6358 13.9819 15.6624 14.0219 15.674 14.0429C15.6925 14.0762 15.7071 14.1338 15.6956 14.2057C15.6842 14.2776 15.6525 14.3278 15.6246 14.3537C15.607 14.3701 15.5693 14.3999 15.4681 14.3999V16.3999C18.0061 16.3999 18.5731 12.8371 16.1604 12.0492L15.5396 13.9505ZM16.2319 9.59985C13.6939 9.59985 13.1269 13.1626 15.5396 13.9505L16.1604 12.0492C16.0642 12.0178 16.0376 11.9778 16.026 11.9568C16.0075 11.9235 15.9929 11.8659 16.0044 11.794C16.0158 11.7221 16.0475 11.672 16.0754 11.646C16.093 11.6296 16.1307 11.5999 16.2319 11.5999V9.59985Z" fill="#1B2767"/>
<path d="M15.7559 15.4998L15.6996 16.9997" stroke="#1B2767" stroke-width="2"/>
<path d="M16 9L15.9437 10.5" stroke="#1B2767" stroke-width="2"/>
</svg>
