<svg width="32" height="32" viewBox="0 0 32 32" fill="none" xmlns="http://www.w3.org/2000/svg">
<rect opacity="0.3" width="32" height="32" rx="8" fill="#FB896B"/>
<path d="M25 11.2564C25 11.0982 24.9142 10.9523 24.7759 10.8755L16 6L7.22414 10.8755C7.0858 10.9523 7 11.0982 7 11.2564C7 17.2702 10.2604 22.8113 15.5174 25.7319L16 26L16.4826 25.7319C21.7396 22.8113 25 17.2702 25 11.2564Z" fill="#FEDCD3" stroke="#1B2767" stroke-width="2" stroke-linejoin="round"/>
<path fill-rule="evenodd" clip-rule="evenodd" d="M19.7941 13.5869C20.0343 13.9271 19.9531 14.3976 19.6129 14.6377C18.5612 15.3799 18.0295 15.8563 17.1765 16.8203C16.8545 17.1843 16.4726 17.7032 16.1615 18.1477C16.0083 18.3666 15.8764 18.5614 15.7829 18.7014C15.7362 18.7713 15.6992 18.8274 15.674 18.8656L15.6455 18.9092L15.6384 18.92L15.6368 18.9226C15.4924 19.1456 15.2409 19.2767 14.9754 19.2668C14.7099 19.2569 14.4692 19.108 14.3418 18.8748L12.7647 15.9877C12.5651 15.6222 12.6995 15.1641 13.0649 14.9645C13.4304 14.7649 13.8884 14.8993 14.0881 15.2647L15.0752 17.0718C15.3689 16.6602 15.7227 16.1879 16.0471 15.8211C16.9774 14.7697 17.5963 14.2151 18.7434 13.4056C19.0836 13.1655 19.554 13.2467 19.7941 13.5869Z" fill="#1B2767"/>
</svg>
