<svg width="32" height="32" viewBox="0 0 32 32" fill="none" xmlns="http://www.w3.org/2000/svg">
<rect opacity="0.3" width="32" height="32" rx="8" fill="#4A7EF6"/>
<path d="M11 11.5V9C11 8.46957 11.158 7.96086 11.4393 7.58579C11.7206 7.21071 12.1022 7 12.5 7H16.25H24C25.1046 7 26 7.89607 26 9.00064C26 10.1009 26 9.99101 26 12V23C26 23.5304 25.842 24.0391 25.5607 24.4142C25.2794 24.7893 24.8978 25 24.5 25H12.5C12.1022 25 11.7206 24.7893 11.4393 24.4142C11.158 24.0391 11 23.5304 11 23V20.5" stroke="#1B2767" stroke-width="2" stroke-linecap="round" stroke-linejoin="round"/>
<path fill-rule="evenodd" clip-rule="evenodd" d="M13.134 20.5004C13.307 20.7991 13.63 21 14 21H23C23.5523 21 24 20.5523 24 20C24 19.4477 23.5523 19 23 19H14.2899C13.9499 19.5316 13.5633 20.0338 13.134 20.5004ZM15.2955 17H23C23.5523 17 24 16.5523 24 16C24 15.4477 23.5523 15 23 15H15.842C15.7235 15.6868 15.5397 16.3563 15.2955 17ZM13.267 16.6802C13.1013 16.5018 13 16.2627 13 16C13 15.5158 13.3442 15.1119 13.8013 15.0197C13.6777 15.5925 13.4982 16.1484 13.267 16.6802ZM15.9906 13H23C23.5523 13 24 12.5523 24 12C24 11.4477 23.5523 11 23 11H14C13.8523 11 13.712 11.032 13.5858 11.0895L15.3438 12.0484C15.7028 12.2443 15.9414 12.6003 15.9906 13Z" fill="#1B2767"/>
<path d="M14.1992 13.6282C14.1992 13.5491 14.1563 13.4762 14.0871 13.4377L9.69922 11L5.31129 13.4377C5.24212 13.4762 5.19922 13.5491 5.19922 13.6282V13.6282C5.19922 16.6351 6.82942 19.4057 9.45794 20.866L9.69922 21L9.9405 20.866C12.569 19.4057 14.1992 16.6351 14.1992 13.6282V13.6282Z" stroke="#1B2767" stroke-width="2" stroke-linejoin="round"/>
<path fill-rule="evenodd" clip-rule="evenodd" d="M11.5963 14.7935C11.7163 14.9636 11.6758 15.1988 11.5057 15.3188C10.9798 15.6899 10.7139 15.9281 10.2875 16.4102C10.1265 16.5922 9.93553 16.8516 9.77997 17.0738C9.70336 17.1833 9.6374 17.2807 9.59065 17.3507C9.5673 17.3857 9.5488 17.4137 9.53623 17.4328L9.52197 17.4546L9.51844 17.46L9.51762 17.4613C9.44542 17.5728 9.31968 17.6384 9.18693 17.6334C9.05418 17.6284 8.93383 17.554 8.87014 17.4374L8.08156 15.9938C7.98175 15.8111 8.04896 15.5821 8.23168 15.4823C8.4144 15.3824 8.64344 15.4496 8.74326 15.6324L9.23684 16.5359C9.38365 16.3301 9.56056 16.0939 9.72278 15.9106C10.1879 15.3848 10.4974 15.1076 11.0709 14.7028C11.241 14.5828 11.4762 14.6233 11.5963 14.7935Z" fill="#6E7CA7" stroke="#1B2767" stroke-linecap="round" stroke-linejoin="round"/>
</svg>
