<svg width="32" height="32" viewBox="0 0 32 32" fill="none" xmlns="http://www.w3.org/2000/svg">
<rect opacity="0.3" width="32" height="32" rx="8" fill="#4A7EF6"/>
<path d="M23.8826 15.4994L23.593 16L23.8824 16.5007L24.9854 18.4087L24.9858 18.4094L24.9857 18.4094L23.0757 19.5134L22.5762 19.8022V20.3792V22.5782H20.3772H19.7999L19.5112 23.0781L18.4091 24.9865L18.4085 24.987L18.4077 24.9869L16.4986 23.8834L15.9979 23.594L15.4973 23.8836L13.5903 24.9871C13.5902 24.987 13.5901 24.9869 13.5899 24.9869C13.5892 24.9864 13.5885 24.9859 13.5879 24.9853C13.5874 24.9848 13.587 24.9843 13.5866 24.9837C13.5865 24.9835 13.5864 24.9834 13.5863 24.9832L12.4849 23.0777L12.1962 22.5782H11.6192H9.41916V20.3792V19.8022L8.91958 19.5134L7.01369 18.4118C7.01361 18.4117 7.01352 18.4117 7.01345 18.4116C7.01266 18.4111 7.01209 18.4103 7.01184 18.4094C7.01159 18.4084 7.0117 18.4074 7.01215 18.4065C7.01218 18.4065 7.01221 18.4064 7.01224 18.4063L8.11471 16.501L8.40449 16.0002L8.11471 15.4994L7.01071 13.5914L7.0105 13.591L7.01058 13.591L8.92058 12.487L9.42016 12.1982V11.6212V9.42218H11.6192H12.1962L12.4849 8.92261L13.5889 7.01261L13.5892 7.01221L15.4984 8.11676L15.9989 8.40634L16.4996 8.11696L18.4086 7.01352C18.4094 7.0141 18.41 7.01483 18.4106 7.01566C18.4106 7.01573 18.4106 7.0158 18.4107 7.01587L19.5123 8.92246L19.801 9.42218H20.3782H22.5772V11.6222V12.1992L23.0767 12.488L24.9864 13.5918L23.8826 15.4994ZM12.7232 25.4882L13.5881 24.9882L13.5892 25.9882C13.4138 25.9872 13.2418 25.9405 13.0899 25.8529C12.9381 25.7652 12.8117 25.6395 12.7232 25.4882Z" stroke="#1B2767" stroke-width="2"/>
<rect x="12.4093" y="13.2274" width="1.90909" height="2.45455" rx="0.954545" stroke="#1B2767" stroke-width="0.818182"/>
<rect x="18.1358" y="15.6817" width="1.90909" height="2.45455" rx="0.954545" stroke="#1B2767" stroke-width="0.818182"/>
<path d="M14.152 19.5947L16.927 12.1947C16.9709 12.0776 17.0828 12 17.2079 12H18.0671C18.2766 12 18.4215 12.2092 18.348 12.4053L15.573 19.8053C15.5291 19.9224 15.4172 20 15.2921 20H14.4329C14.2234 20 14.0785 19.7908 14.152 19.5947Z" fill="#1B2767"/>
</svg>
