<svg width="22" height="22" viewBox="0 0 22 22" fill="none" xmlns="http://www.w3.org/2000/svg">
<path fill-rule="evenodd" clip-rule="evenodd" d="M10.4418 0.0490399C10.4249 0.13981 10.393 0.574801 10.3709 1.01569C10.3489 1.45657 10.3205 1.85973 10.3078 1.9116C10.2797 2.0267 10.3973 2.87862 10.4494 2.93766C10.4714 2.9627 10.5143 2.88834 10.5541 2.7557C10.6441 2.45632 10.6401 1.52626 10.5448 0.591305C10.4877 0.0319232 10.4662 -0.0814809 10.4418 0.0490399ZM2.76069 1.95875C2.76069 1.99766 2.7747 2.02958 2.79188 2.02968C2.80906 2.02977 2.91666 2.16222 3.03103 2.324C3.14541 2.48579 3.2998 2.68798 3.37417 2.77333C3.44853 2.85873 3.50934 2.93606 3.50934 2.9452C3.50934 2.96458 3.82257 3.36751 3.9493 3.51119C4.09982 3.68184 4.30678 3.86847 4.34546 3.86847C4.36597 3.86847 4.38277 3.8871 4.38277 3.90992C4.38277 3.95679 4.625 4.08109 4.65345 4.04883C4.67974 4.01908 4.51179 3.66661 4.4415 3.60394C4.40918 3.57513 4.38277 3.53708 4.38277 3.51935C4.38277 3.48695 4.20159 3.29244 3.73577 2.82468C3.59722 2.68558 3.3948 2.48155 3.28595 2.37135C3.17715 2.26115 3.08057 2.17095 3.07138 2.17095C3.06223 2.17095 2.99726 2.10729 2.92705 2.02948C2.78194 1.86864 2.76069 1.85964 2.76069 1.95875ZM18.1081 1.92551C18.1081 1.94607 18.0192 2.04066 17.9105 2.13563C17.8019 2.23064 17.6445 2.37823 17.5609 2.46363C17.4773 2.54902 17.2995 2.72434 17.1658 2.85316C17.0321 2.98199 16.8385 3.18366 16.7356 3.30131C16.5179 3.55004 16.2272 4.02662 16.2798 4.0485C16.3342 4.07114 16.5738 3.93142 16.7148 3.79501C17.0312 3.48874 17.1099 3.4017 17.1099 3.35775C17.1099 3.33177 17.1264 3.30343 17.1466 3.29475C17.1669 3.28613 17.3201 3.09869 17.4872 2.87825C17.6543 2.6578 17.8109 2.45467 17.8352 2.42685C17.8594 2.39903 17.9355 2.29529 18.0041 2.19632C18.0727 2.09734 18.1536 1.98752 18.1838 1.9522C18.2295 1.89887 18.2278 1.88802 18.1734 1.88802C18.1375 1.88802 18.1081 1.9049 18.1081 1.92551ZM1.11781 8.18537C0.843302 8.21776 0.468975 8.24705 0.285971 8.25049C0.00198167 8.25582 -0.0362417 8.26581 0.0250647 8.31858C0.104672 8.38714 1.06012 8.46192 1.82487 8.45947C2.68283 8.45669 2.93296 8.33192 2.3644 8.19027C2.01099 8.10224 1.82841 8.10153 1.11781 8.18537ZM19.1375 8.19419C18.9831 8.23417 18.8567 8.29151 18.8567 8.32164C18.8567 8.42769 19.453 8.50601 19.9728 8.46829C20.2397 8.44891 20.6864 8.41925 20.9656 8.40237C21.2826 8.38318 21.4926 8.34951 21.525 8.31268C21.5665 8.26553 21.519 8.25355 21.2878 8.25275C21.1288 8.25223 20.718 8.22069 20.3748 8.18263C19.6234 8.09927 19.4995 8.10045 19.1375 8.19419Z" fill="url(#paint0_linear_1353_15677)"/>
<path fill-rule="evenodd" clip-rule="evenodd" d="M4.99101 6.51418C4.99101 6.58636 6.51154 10.7878 6.55247 10.8288C6.58203 10.8582 7.52904 9.88724 8.80783 8.51619C9.16046 8.13812 9.73948 7.5281 10.0945 7.16049L10.7399 6.49219H7.86548C6.28454 6.49219 4.99101 6.50212 4.99101 6.51418ZM10.9216 6.58766C10.9538 6.64021 11.2566 6.97382 11.5944 7.32906C12.9702 8.77588 13.622 9.46686 14.2361 10.1299C14.5913 10.5133 14.9086 10.8223 14.9412 10.8166C14.9859 10.8087 16.4476 6.63608 16.4476 6.51617C16.4476 6.50296 15.1911 6.49219 13.6554 6.49219C11.4412 6.49219 10.8752 6.51197 10.9216 6.58766ZM3.26862 9.19083L1.96631 11.3422L4.02476 11.3625C5.15698 11.3737 6.10062 11.3655 6.12186 11.3442C6.16096 11.3051 4.70383 7.18424 4.61776 7.09045C4.59202 7.06242 3.98489 8.00759 3.26862 9.19083ZM8.90498 8.95215C7.89679 10.0146 6.97866 10.9956 6.86478 11.1321L6.65772 11.3803H10.7996H14.9414L14.3322 10.7502C13.9972 10.4037 13.0732 9.43272 12.279 8.59257C11.4848 7.75242 10.8131 7.05494 10.7865 7.04272C10.76 7.03042 9.91324 7.88967 8.90498 8.95215ZM16.0844 9.18534C15.6961 10.3305 15.3784 11.2929 15.3784 11.3239C15.3784 11.355 16.2892 11.3803 17.4024 11.3803C18.5156 11.3803 19.4264 11.3597 19.4264 11.3346C19.4264 11.3095 18.9227 10.4588 18.3071 9.44426C17.6914 8.42973 17.1209 7.48792 17.0393 7.35143C16.9576 7.21487 16.8682 7.10321 16.8406 7.10321C16.813 7.10321 16.4727 8.04021 16.0844 9.18534ZM2.02504 11.8308C2.03902 11.8686 3.15031 13.113 4.49456 14.5961C5.8388 16.0792 7.69348 18.1262 8.61604 19.1448C9.53861 20.1635 10.3047 20.9857 10.3186 20.9718C10.3426 20.9478 10.0263 20.2336 8.06605 15.8866C7.58296 14.8154 7.04106 13.6125 6.8618 13.2134C6.68255 12.8143 6.46166 12.3246 6.37092 12.125L6.20587 11.7622H4.10274C2.89109 11.7622 2.01038 11.7913 2.02504 11.8308ZM6.59494 11.7897C6.59494 11.8048 6.7105 12.0711 6.8518 12.3816C7.17877 13.1 7.58579 14.0033 8.27632 15.5429C8.57778 16.215 9.2127 17.6242 9.68716 18.6744C10.1617 19.7246 10.6057 20.718 10.6738 20.882C10.7419 21.0459 10.8117 21.1661 10.8288 21.149C10.8459 21.132 11.1233 20.5166 11.4452 19.7816C11.7671 19.0467 12.1446 18.1875 12.2841 17.8724C13.1604 15.8925 14.9201 11.843 14.9201 11.8062C14.9201 11.782 13.0469 11.7622 10.7575 11.7622C8.4681 11.7622 6.59494 11.7746 6.59494 11.7897ZM14.9976 12.5069C14.8183 12.9165 14.4905 13.664 14.2691 14.1681C14.0479 14.6722 13.5662 15.7721 13.1989 16.6122C12.8316 17.4524 12.2609 18.7566 11.9307 19.5105C11.6005 20.2644 11.3315 20.9174 11.3329 20.9617C11.3343 21.0059 11.4065 20.9562 11.4933 20.8512C11.6639 20.6449 15.0039 16.8522 16.0658 15.659C16.4228 15.2578 16.9563 14.6551 17.2514 14.3197C17.5463 13.9843 18.1765 13.2716 18.6518 12.736L19.5159 11.7622H17.4198H15.3238L14.9976 12.5069Z" fill="url(#paint1_linear_1353_15677)"/>
<defs>
<linearGradient id="paint0_linear_1353_15677" x1="-1.73077" y1="4.7792" x2="26.3462" y2="4.7792" gradientUnits="userSpaceOnUse">
<stop stop-color="#109CF1"/>
<stop offset="0.465753" stop-color="#7BE7FF"/>
<stop offset="1" stop-color="#109CF1"/>
</linearGradient>
<linearGradient id="paint1_linear_1353_15677" x1="0.556075" y1="14.7555" x2="23.4332" y2="14.7555" gradientUnits="userSpaceOnUse">
<stop stop-color="#109CF1"/>
<stop offset="0.465753" stop-color="#7BE7FF"/>
<stop offset="1" stop-color="#109CF1"/>
</linearGradient>
</defs>
</svg>
